<svg height="20" viewBox="0 0 21 20" width="21" xmlns="http://www.w3.org/2000/svg"><path d="m378.381271 401.145c-.78435-.393-1.731451.133-1.731451.978 0 .429.2688.802.666751 1.003 2.920051 1.476 4.794302 4.59 4.258801 8.048-.5292 3.428-3.524851 6.169-7.141053 6.554-4.919252.523-9.100353-3.147-9.100353-7.728 0-2.996 1.7871-5.6 4.399501-6.899.368551-.183.616351-.529.616351-.925v-.092c0-.828-.926101-1.339-1.697851-.955-3.700202 1.837-6.106803 5.712-5.579702 10.062.5523 4.551 4.443601 8.239 9.224254 8.745 6.337802.671 11.703304-4.036 11.703304-9.936 0-3.845-2.277451-7.182-5.618552-8.855m-5.931452 7.855v-8c0-.553.4704-1 1.05-1 .58065 0 1.05.447 1.05 1v8c0 .552-.46935 1-1.05 1-.5796 0-1.05-.448-1.05-1" fill-rule="evenodd" transform="translate(-363 -400)"/></svg>