<svg height="20" viewBox="0 0 21 20" width="21" xmlns="http://www.w3.org/2000/svg"><path d="m211.261065 690.694762c-1.638003 1.559668-4.294254 1.559668-5.932258 0l-1.714556-1.632559c-.819001-.779835-.819001-2.043945 0-2.823779.819002-.779834 2.147652-.779834 2.966654 0 1.14094 1.086376 2.391989.986525 3.196309.219672.810613-.771847.908138-1.96007-.235948-3.048443-.819002-.779834-.819002-2.044943 0-2.824777.820051-.779835 2.147652-.779835 2.966654 0l1.71875 1.636553c1.638004 1.559669 1.638004 4.088888 0 5.648556l9.129616 8.694003c1.962039 1.867209-1.005663 4.689989-2.965604 2.823779z" fill-rule="evenodd" transform="translate(-203 -680)"/></svg>